
<?xml version="1.0" encoding="UTF-8"?>
<svg width="1200pt" height="1200pt" version="1.1" viewBox="0 0 1200 1200" xmlns="http://www.w3.org/2000/svg">
 <path d="m495.56 466.74c5.25-4.2656 12.984-3.5156 17.25 1.7812 4.3125 5.25 3.4688 12.984-1.7344 17.297 0 0-82.922 67.828-54.094 183.74 0.84375 3.375 0.1875 6.9375-1.7344 9.8438l-54.516 80.578c-2.2031 3.2344-1.4531 7.6406 1.7344 9.9844l31.172 22.969c2.7656 2.0156 4.5469 5.0625 4.9219 8.4844l3.8906 33.844c0.70312 6 3.6562 11.484 8.2969 15.328l19.828 16.453c4.6406 3.8438 5.8125 10.5 2.7188 15.703l-6.5156 11.016c-2.7188 4.5938-2.0156 9.375-0.89062 14.297 1.1719 5.2031 3 10.453 4.4531 15.844 1.9219 6.8906 8.8594 13.078 19.219 17.859 20.016 9.1875 51.797 11.859 93.938 0.79688 23.016-6 39.047 6.0938 49.406 24 12.516 21.656 15.75 51.938 15.75 51.938 0.75 6.75-4.1719 12.797-10.922 13.453-6.75 0.70312-12.797-4.1719-13.5-10.969 0 0-2.4375-24.562-12.562-42.141-4.7812-8.25-11.391-15.281-21.938-12.516-49.547 12.984-86.859 8.5312-110.39-2.25-18.562-8.5312-29.25-21.281-32.672-33.609-2.0625-7.4531-4.5469-14.766-5.6719-21.797-1.4062-9.4219-0.5625-18.562 4.6406-27.422l1.2188-2.0156-11.812-9.7031c-9.4688-7.9219-15.609-19.172-17.016-31.453l-3.2344-28.547-26.953-19.828c-13.734-10.125-17.016-29.344-7.4531-43.453 0 0 51.469-76.172 51.469-76.172-28.875-128.48 63.703-203.34 63.703-203.34zm373.55 475.87c6.375 1.6875 10.312 8.25 8.7188 14.719-1.5469 6.5625-8.2031 10.641-14.766 9.0938 0 0-34.734-6.375-38.812-64.031-2.2969-32.25 5.4844-83.109 39.141-163.03 77.109-182.9-37.922-272.39-37.922-272.39-5.3438-4.125-6.375-11.812-2.25-17.203s11.812-6.4219 17.203-2.2969c0 0 131.11 98.672 45.609 301.45-38.859 92.156-42 142.22-34.359 169.4 5.1094 18.375 15.188 23.578 17.438 24.281zm83.25-542.39-53.625 30.891c-5.8594 3.4219-13.359 1.4062-16.734-4.5l-30.938-53.531c-3.4219-5.9062-1.3594-13.406 4.5-16.781l53.531-30.938c5.9062-3.375 13.406-1.3594 16.781 4.5l30.938 53.578c3.375 5.8594 1.3594 13.359-4.4531 16.781zm-22.922-15.141-18.656-32.297-32.344 18.609 18.703 32.297zm-349.82-164.16-19.547 33.844c-3.375 5.9062-10.875 7.875-16.734 4.5l-33.844-19.5c-5.9062-3.4219-7.875-10.969-4.5-16.828l19.5-33.797c3.4219-5.9062 10.969-7.9219 16.781-4.5469l33.844 19.594c5.9062 3.375 7.9219 10.875 4.5 16.734zm-27.375-1.6406-12.609-7.2656-7.2188 12.609 12.516 7.2188zm45.281 381.24c23.953 0 43.406 19.453 43.406 43.406s-19.453 43.359-43.406 43.359-43.359-19.406-43.359-43.359 19.406-43.406 43.359-43.406zm0 24.562c-10.359 0-18.797 8.4375-18.797 18.844 0 10.359 8.4375 18.797 18.797 18.797 10.406 0 18.844-8.4375 18.844-18.797 0-10.406-8.4375-18.844-18.844-18.844zm114.56-457.08c23.953 0 43.359 19.453 43.359 43.406s-19.406 43.406-43.359 43.406-43.406-19.453-43.406-43.406 19.453-43.406 43.406-43.406zm0 24.562c-10.406 0-18.844 8.4375-18.844 18.844s8.4375 18.844 18.844 18.844c10.359 0 18.797-8.4375 18.797-18.844s-8.4375-18.844-18.797-18.844zm41.109 358.18-16.828 75.328c-0.9375 4.1719-3.9844 7.5469-7.9688 8.9531-3.9844 1.3594-8.4844 0.60937-11.766-2.0625l-53.531-43.641c-3.3281-2.6719-4.9688-6.8906-4.4062-11.109 0.51562-4.2188 3.2344-7.8281 7.125-9.6094l70.359-31.734c4.2188-1.875 9.1875-1.2656 12.797 1.7344 3.6094 2.9062 5.25 7.5938 4.2188 12.141zm-29.297 18.656-29.859 13.453 22.688 18.516zm-75.609-243.19-51.469-3.0938c-4.2656-0.1875-8.0625-2.6719-10.078-6.4219-2.0156-3.7031-1.9688-8.25 0.1875-11.953l23.062-39.938c2.1094-3.7031 6-6 10.266-6.0938 4.2188-0.1875 8.25 1.9688 10.594 5.4844l28.406 42.984c2.5781 3.8906 2.7188 8.9062 0.375 12.938-2.2969 4.0312-6.75 6.4219-11.344 6.0938zm-23.062-25.969-3.9375-5.9531-3.1875 5.5312zm-231.32 164.95-50.812-46.172c-3.2812-3-4.7344-7.5938-3.6562-11.953 1.0312-4.3594 4.4062-7.8281 8.7656-8.9531l71.672-19.219c4.3125-1.1719 8.9531 0.14062 12.047 3.375 3.1406 3.2812 4.2188 7.9219 2.8125 12.234l-20.906 65.344c-1.2656 3.9844-4.4531 7.0312-8.4844 8.1094-4.0781 1.0781-8.3906 0.046875-11.438-2.7656zm2.3906-31.031 8.2031-25.688-28.266 7.5zm573.52-202.74c6.7031 0.89062 11.438 7.0781 10.547 13.781-0.84375 6.75-7.0312 11.484-13.781 10.547 0 0-169.87-22.406-218.76 143.02-1.9219 6.5156-8.7656 10.219-15.234 8.2969-6.5156-1.9219-10.266-8.7188-8.3438-15.234 54.891-185.68 245.58-160.4 245.58-160.4zm-730.5 133.78c-5.4844 4.0312-13.172 2.7656-17.156-2.7188-3.9844-5.4844-2.7656-13.172 2.7188-17.156 0 0 155.72-112.92 292.31 24.234 4.7812 4.8281 4.7344 12.609-0.046875 17.344-4.7812 4.8281-12.562 4.7812-17.344 0-121.74-122.26-260.48-21.703-260.48-21.703zm447.42 32.016c-3.0469-6.0469-0.5625-13.453 5.4844-16.5 6.0469-3.0469 13.453-0.60938 16.453 5.4844l20.578 40.875 34.547-29.25c5.1562-4.3594 12.938-3.75 17.297 1.4531 4.3594 5.1562 3.75 12.891-1.4531 17.297l-46.406 39.328c-2.8594 2.4375-6.7031 3.4219-10.359 2.6719-3.7031-0.79688-6.8438-3.1406-8.5781-6.5156zm-158.53-40.031c-0.23437-6.75 5.1094-12.422 11.906-12.609 6.75-0.23438 12.422 5.1094 12.609 11.906l1.875 61.359c0.09375 3.75-1.5 7.3594-4.4062 9.7969-2.8594 2.3906-6.7031 3.375-10.406 2.5781l-59.531-12.516c-6.6094-1.4062-10.922-7.9219-9.5156-14.531s7.9219-10.875 14.531-9.5156l44.297 9.3281z" fill="#171212" fill-rule="evenodd"/>
</svg>
