<?xml version="1.0" encoding="utf-8"?>
<!-- Uploaded to: SVG Repo, www.svgrepo.com, Generator: SVG Repo Mixer Tools -->
<svg width="800px" height="800px" viewBox="0 0 1024 1024" class="icon"  version="1.1" xmlns="http://www.w3.org/2000/svg"><path d="M511.3 676.9m-10 0a10 10 0 1 0 20 0 10 10 0 1 0-20 0Z" fill="#1200DE" /><path d="M960 756V138.5H64V756h320.1v85.5H256.2v44h511.9v-44h-128V756H960zM108 182.5h808v427.1H108V182.5z m488.1 659h-168V756h168v85.5zM108 712v-82.5h808V712H108z" fill="#161412" /><path d="M167.536 327.703l90.72-90.721 14.143 14.142-90.721 90.72zM172.959 423.469l181.159-181.16 14.142 14.143L187.1 437.61z" fill="#1200DE" /></svg>