<?xml version="1.0" encoding="UTF-8" standalone="no"?>
<!-- Uploaded to: SVG Repo, www.svgrepo.com, Generator: SVG Repo Mixer Tools -->
<svg width="800px" height="800px" viewBox="0 0 64 64" version="1.1" xmlns="http://www.w3.org/2000/svg" xmlns:xlink="http://www.w3.org/1999/xlink">
    
    <title>db-tables-swap</title>
    <desc>Created with Sketch.</desc>
    <defs>

</defs>
    <g id="General" stroke="none" stroke-width="1" fill="none" fill-rule="evenodd">
        <g id="SLICES-64px" transform="translate(-270.000000, -400.000000)">

</g>
        <g id="ICONS" transform="translate(-265.000000, -395.000000)">
            <g id="db-tables-swap" transform="translate(270.000000, 402.000000)">
                <polygon id="Fill-403" fill="#4BAADC" points="0 38 24 38 24 32 0 32">

</polygon>
                <polygon id="Fill-404" fill="#FFFFFF" points="0 50 8 50 8 44 0 44">

</polygon>
                <polygon id="Fill-405" fill="#FFFFFF" points="8 50 16 50 16 44 8 44">

</polygon>
                <polygon id="Fill-406" fill="#FFFFFF" points="16 50 24 50 24 44 16 44">

</polygon>
                <polygon id="Fill-407" fill="#FFFFFF" points="0 44 8 44 8 38 0 38">

</polygon>
                <polygon id="Fill-408" fill="#FFFFFF" points="8 44 16 44 16 38 8 38">

</polygon>
                <polygon id="Fill-409" fill="#FFFFFF" points="16 44 24 44 24 38 16 38">

</polygon>
                <polygon id="Fill-410" fill="#4BAADC" points="30 6 54 6 54 0 30 0">

</polygon>
                <polygon id="Fill-411" fill="#FFFFFF" points="30 18 38 18 38 12 30 12">

</polygon>
                <polygon id="Fill-412" fill="#FFFFFF" points="38 18 46 18 46 12 38 12">

</polygon>
                <polygon id="Fill-413" fill="#FFFFFF" points="46 18 54 18 54 12 46 12">

</polygon>
                <polygon id="Fill-414" fill="#FFFFFF" points="30 12 38 12 38 6 30 6">

</polygon>
                <polygon id="Fill-415" fill="#FFFFFF" points="38 12 46 12 46 6 38 6">

</polygon>
                <polygon id="Fill-416" fill="#FFFFFF" points="46 12 54 12 54 6 46 6">

</polygon>
                <path d="M24,8 C17.373,8 12,13.373 12,20 L12,26" id="Stroke-417" stroke="#4BAADC" stroke-width="2" stroke-linecap="round" stroke-linejoin="round">

</path>
                <path d="M30,42 C36.627,42 42,36.627 42,30 L42,24" id="Stroke-418" stroke="#4BAADC" stroke-width="2" stroke-linecap="round" stroke-linejoin="round">

</path>
                <polyline id="Stroke-419" stroke="#4BAADC" stroke-width="2" stroke-linecap="round" stroke-linejoin="round" points="38 28 42 24 46 28">

</polyline>
                <polyline id="Stroke-420" stroke="#4BAADC" stroke-width="2" stroke-linecap="round" stroke-linejoin="round" points="8 22 12 26 16 22">

</polyline>
                <polygon id="Stroke-421" stroke="#1E69A0" stroke-width="2" stroke-linecap="round" stroke-linejoin="round" points="30 18 54 18 54 0 30 0">

</polygon>
                <path d="M30,6 L54,6" id="Stroke-422" stroke="#1E69A0" stroke-width="2" stroke-linecap="round" stroke-linejoin="round">

</path>
                <path d="M30,12 L54,12" id="Stroke-423" stroke="#1E69A0" stroke-width="2" stroke-linecap="round" stroke-linejoin="round">

</path>
                <path d="M38,6 L38,18" id="Stroke-424" stroke="#1E69A0" stroke-width="2" stroke-linecap="round" stroke-linejoin="round">

</path>
                <path d="M46,6 L46,18" id="Stroke-425" stroke="#1E69A0" stroke-width="2" stroke-linecap="round" stroke-linejoin="round">

</path>
                <polygon id="Stroke-426" stroke="#1E69A0" stroke-width="2" stroke-linecap="round" stroke-linejoin="round" points="0 50 24 50 24 32 0 32">

</polygon>
                <path d="M0,38 L24,38" id="Stroke-427" stroke="#1E69A0" stroke-width="2" stroke-linecap="round" stroke-linejoin="round">

</path>
                <path d="M0,44 L24,44" id="Stroke-428" stroke="#1E69A0" stroke-width="2" stroke-linecap="round" stroke-linejoin="round">

</path>
                <path d="M8,38 L8,50" id="Stroke-429" stroke="#1E69A0" stroke-width="2" stroke-linecap="round" stroke-linejoin="round">

</path>
                <path d="M16,38 L16,50" id="Stroke-430" stroke="#1E69A0" stroke-width="2" stroke-linecap="round" stroke-linejoin="round">

</path>
            </g>
        </g>
    </g>
</svg>