<?xml version="1.0" encoding="UTF-8"?>
<svg width="1200pt" height="1200pt" version="1.1" viewBox="0 0 1200 1200" xmlns="http://www.w3.org/2000/svg">
 <path d="m1025 1100h-849.98c-19.922 0-38.953-7.9219-53.016-21.984s-21.984-33.141-21.984-53.016v-849.98c0-19.922 7.9219-38.953 21.984-53.016s33.141-21.984 53.016-21.984h849.98c19.922 0 38.953 7.9219 53.016 21.984s21.984 33.141 21.984 53.016v849.98c0 19.922-7.9219 38.953-21.984 53.016s-33.141 21.984-53.016 21.984zm-50.016-50.016h50.016c6.6094 0 12.984-2.625 17.672-7.3125s7.3125-11.062 7.3125-17.672v-849.98c0-6.6094-2.625-12.984-7.3125-17.672s-11.062-7.3125-17.672-7.3125h-849.98c-6.6094 0-12.984 2.625-17.672 7.3125s-7.3125 11.062-7.3125 17.672v849.98c0 6.6094 2.625 12.984 7.3125 17.672s11.062 7.3125 17.672 7.3125h50.016v-50.016c0-13.781 11.203-24.984 24.984-24.984h40.688c5.3906-16.594 12.047-32.672 19.922-47.953l-28.781-28.781c-9.75-9.7969-9.75-25.594 0-35.344l106.08-106.08c9.75-9.75 25.594-9.75 35.344 0 0 0 28.781 28.781 28.781 28.828 15.328-7.875 31.359-14.531 47.953-19.922v-40.688c0-13.781 11.203-24.984 24.984-24.984h150c13.781 0 24.984 11.203 24.984 24.984v40.688c16.594 5.3906 32.672 12.047 47.953 19.922l28.781-28.781c9.7969-9.75 25.594-9.75 35.344 0l106.08 106.08c9.75 9.75 9.75 25.594 0 35.344 0 0-28.781 28.781-28.828 28.781 7.875 15.328 14.531 31.359 19.922 47.953h40.688c13.781 0 24.984 11.203 24.984 24.984v50.016zm-525 0h300c0-82.781-67.219-150-150-150s-150 67.219-150 150z" fill-rule="evenodd"/>
 <path d="m209.39 294.52c-10.781-8.625-12.516-24.375-3.8906-35.156s24.375-12.516 35.156-3.8906l125.02 99.984c5.9062 4.7344 9.375 11.906 9.375 19.547 0 7.5938-3.4688 14.766-9.375 19.547l-125.02 99.984c-10.781 8.625-26.531 6.8906-35.156-3.8906s-6.8906-26.531 3.8906-35.156l100.59-80.484z" fill-rule="evenodd"/>
 <path d="m450 300c-13.781 0-24.984-11.203-24.984-24.984s11.203-24.984 24.984-24.984h99.984c13.781 0 24.984 11.203 24.984 24.984s-11.203 24.984-24.984 24.984z" fill-rule="evenodd"/>
 <path d="m750 350.02c13.781 0 24.984 11.203 24.984 24.984s-11.203 24.984-24.984 24.984h-75c-13.781 0-24.984-11.203-24.984-24.984s11.203-24.984 24.984-24.984z" fill-rule="evenodd"/>
 <path d="m650.02 300c-13.781 0-24.984-11.203-24.984-24.984s11.203-24.984 24.984-24.984h99.984c13.781 0 24.984 11.203 24.984 24.984s-11.203 24.984-24.984 24.984z" fill-rule="evenodd"/>
 <path d="m849.98 300c-13.781 0-24.984-11.203-24.984-24.984s11.203-24.984 24.984-24.984h125.02c13.781 0 24.984 11.203 24.984 24.984s-11.203 24.984-24.984 24.984z" fill-rule="evenodd"/>
 <path d="m849.98 399.98c-13.781 0-24.984-11.203-24.984-24.984s11.203-24.984 24.984-24.984h125.02c13.781 0 24.984 11.203 24.984 24.984s-11.203 24.984-24.984 24.984z" fill-rule="evenodd"/>
 <path d="m575.02 350.02c13.781 0 24.984 11.203 24.984 24.984s-11.203 24.984-24.984 24.984h-125.02c-13.781 0-24.984-11.203-24.984-24.984s11.203-24.984 24.984-24.984z" fill-rule="evenodd"/>
 <path d="m450 500.02c-13.781 0-24.984-11.203-24.984-24.984s11.203-24.984 24.984-24.984h200.02c13.781 0 24.984 11.203 24.984 24.984s-11.203 24.984-24.984 24.984z" fill-rule="evenodd"/>
 <path d="m750 500.02c-13.781 0-24.984-11.203-24.984-24.984s11.203-24.984 24.984-24.984h225c13.781 0 24.984 11.203 24.984 24.984s-11.203 24.984-24.984 24.984z" fill-rule="evenodd"/>
 <path d="m225 600c-13.781 0-24.984-11.203-24.984-24.984s11.203-24.984 24.984-24.984h99.984c13.781 0 24.984 11.203 24.984 24.984s-11.203 24.984-24.984 24.984z" fill-rule="evenodd"/>
 <path d="m425.02 600c-13.781 0-24.984-11.203-24.984-24.984s11.203-24.984 24.984-24.984h150c13.781 0 24.984 11.203 24.984 24.984s-11.203 24.984-24.984 24.984z" fill-rule="evenodd"/>
 <path d="m675 600c-13.781 0-24.984-11.203-24.984-24.984s11.203-24.984 24.984-24.984h135.94c13.781 0 24.984 11.203 24.984 24.984s-11.203 24.984-24.984 24.984z" fill-rule="evenodd"/>
 <path d="m900 600c-13.781 0-24.984-11.203-24.984-24.984s11.203-24.984 24.984-24.984h75c13.781 0 24.984 11.203 24.984 24.984s-11.203 24.984-24.984 24.984z" fill-rule="evenodd"/>
</svg>
