<?xml version="1.0" encoding="utf-8"?>
<!-- Uploaded to: SVG Repo, www.svgrepo.com, Generator: SVG Repo Mixer Tools -->
<svg width="800px" height="800px" viewBox="0 0 1024 1024" class="icon"  version="1.1" xmlns="http://www.w3.org/2000/svg"><path d="M844.1 211.4c-3.6-4-7.3-7.9-11-11.7-53.8-55.4-121.9-96.9-198.2-118.7-15.1-4.3-30.5-7.8-46.2-10.5-25-4.3-50.6-6.5-76.7-6.5-126 0-239.9 52-321.3 135.8-3.7 3.8-7.4 7.7-11 11.7C107.8 290.9 64 396.4 64 512s43.8 220.9 115.6 300.4c3.6 4 7.2 7.9 11 11.7 53.9 55.5 122.1 97.1 198.6 118.9 15.1 4.3 30.5 7.8 46.2 10.5 24.9 4.3 50.5 6.5 76.6 6.5s51.7-2.2 76.7-6.5c15.7-2.7 31.1-6.2 46.2-10.5 76.5-21.7 144.6-63.3 198.5-118.8 3.7-3.9 7.4-7.7 11-11.7C916.2 733 960 627.6 960 512c0-115.7-43.9-221.1-115.9-300.6z m71.8 308.8c-1 51.7-11.6 101.8-31.6 149.1-17.4 41.2-41.3 78.8-71.1 112-3.5 4-7.2 7.9-10.9 11.7-1.5 1.6-3.1 3.1-4.6 4.7-37.1 37.1-80.3 66.3-128.4 86.6-35.8 15.1-73.1 24.9-111.6 29.2-12.5 1.4-25 2.2-37.7 2.4-2.6 0.1-5.3 0.1-8 0.1s-5.3 0-8-0.1c-12.6-0.2-25.2-1-37.7-2.4-38.4-4.3-75.8-14.1-111.6-29.2-48.1-20.4-91.3-49.5-128.4-86.6-1.6-1.6-3.2-3.2-4.7-4.8-3.7-3.8-7.4-7.8-10.9-11.7-29.8-33.2-53.6-70.8-71-111.9-20-47.3-30.6-97.4-31.6-149.1h109.3c0-2.7-0.1-5.4-0.1-8.2 0-2.6 0-5.2 0.1-7.8H108.1c1-51.8 11.6-102 31.7-149.4 17.4-41.2 41.3-78.9 71.2-112.1 3.5-4 7.2-7.9 10.9-11.7 1.5-1.5 3-3.1 4.5-4.6 37.1-37.1 80.3-66.3 128.4-86.6 35.8-15.1 73.1-24.9 111.6-29.2 12.5-1.4 25-2.2 37.7-2.5 2.7-0.1 5.3-0.1 8-0.1s5.3 0 8 0.1c12.7 0.2 25.2 1.1 37.7 2.5 38.4 4.3 75.8 14.1 111.5 29.2 48.1 20.3 91.3 49.5 128.4 86.6 1.5 1.5 3 3 4.4 4.5 3.7 3.8 7.4 7.7 10.9 11.7 29.9 33.3 53.8 70.9 71.3 112.2 20 47.4 30.7 97.6 31.6 149.4H806.6c0 2.6 0.1 5.2 0.1 7.8 0 2.7 0 5.4-0.1 8.2h109.3z" fill="#161412" /><path d="M790.7 512c0 2.7 0 5.4-0.1 8.2H520v144.7c-2.7-0.1-5.4-0.1-8.1-0.1-2.6 0-5.3 0-7.9 0.1V520.2H233.4c-0.1-2.7-0.1-5.4-0.1-8.2 0-2.6 0-5.2 0.1-7.8H504V358.8c2.6 0 5.3 0.1 7.9 0.1 2.7 0 5.4 0 8.1-0.1v145.4h270.6c0 2.6 0.1 5.2 0.1 7.8zM520 111.1v231.6c-2.7 0.1-5.4 0.1-8.1 0.1-2.6 0-5.3 0-7.9-0.1V111.1c2.7-1.1 5.3-2.1 8-3.1 2.7 1 5.3 2.1 8 3.1zM512 916zM520 680.9v232c-2.7 1.1-5.3 2.1-8 3.1-2.7-1-5.3-2.1-8-3.1v-232c2.6-0.1 5.3-0.1 7.9-0.1 2.7 0 5.4 0 8.1 0.1z" fill="#161412" /><path d="M512 916zM512 916zM748.7 732.5c35.6-62.9 56.5-135.2 57.8-212.3 0-2.7 0.1-5.4 0.1-8.2 0-2.6 0-5.2-0.1-7.8-1.3-77.3-22.2-149.9-58-212.9 23-14.3 44.5-30.6 64.4-48.7-3.6-4-7.2-7.9-10.9-11.7-19.2 17.5-39.8 33.1-61.7 46.7-43.9-71.4-107.3-129.5-182.8-167-12.5-1.4-25-2.2-37.7-2.5-2.7-0.1-5.3-0.1-8-0.1 2.7 1 5.3 2.1 8 3.1 2.3 0.9 4.5 1.9 6.8 2.8 51.4 21.8 97.6 52.9 137.3 92.6 24.1 24.1 45 50.6 62.7 79.2-15 8.6-30.6 16.4-46.7 23.2-50.8 21.5-104.6 32.9-160 33.9-2.7 0.1-5.4 0.1-8.1 0.1-2.6 0-5.3 0-7.9-0.1-55.5-1-109.4-12.4-160.3-33.9-16-6.8-31.6-14.5-46.6-23.1 17.6-28.6 38.6-55.2 62.7-79.3 39.7-39.7 85.9-70.8 137.3-92.6 2.3-0.9 4.5-1.9 6.8-2.8 2.7-1.1 5.3-2.1 8-3.1-2.7 0-5.3 0-8 0.1-12.7 0.2-25.2 1.1-37.7 2.5-75.5 37.5-138.9 95.6-182.8 167.1-21.9-13.6-42.5-29.2-61.7-46.7-3.7 3.8-7.4 7.8-10.9 11.7 19.9 18.1 41.5 34.4 64.5 48.7-35.7 63-56.6 135.5-57.9 212.8 0 2.6-0.1 5.2-0.1 7.8 0 2.7 0 5.4 0.1 8.2 1.4 77 22.2 149.3 57.8 212.2-23 14.3-44.6 30.7-64.5 48.8 3.5 4 7.2 7.9 10.9 11.7 19.2-17.5 39.8-33.1 61.7-46.8 43.9 71.6 107.4 129.8 183 167.4 12.5 1.4 25 2.2 37.7 2.4 2.7 0.1 5.3 0.1 8 0.1-2.7-1-5.3-2.1-8-3.1-2.3-0.9-4.5-1.9-6.8-2.8-51.4-21.8-97.6-52.9-137.3-92.6-24.2-24.2-45.2-50.8-62.8-79.5 15-8.6 30.6-16.4 46.7-23.2 50.8-21.5 104.7-32.9 160.3-33.9 2.6-0.1 5.3-0.1 7.9-0.1 2.7 0 5.4 0 8.1 0.1 55.5 1 109.3 12.4 160 33.9 16.2 6.8 31.8 14.6 46.9 23.3-17.6 28.7-38.6 55.3-62.8 79.5-39.7 39.7-85.9 70.8-137.3 92.6-2.3 1-4.5 1.9-6.8 2.8-2.7 1.1-5.3 2.1-8 3.1 2.7 0 5.3 0 8-0.1 12.7-0.2 25.2-1 37.7-2.4 75.6-37.5 139-95.7 182.9-167.3 21.8 13.6 42.5 29.3 61.7 46.8 3.7-3.8 7.3-7.7 10.9-11.7-19.9-18.3-41.5-34.6-64.5-48.9zM520 664.9c-2.7-0.1-5.4-0.1-8.1-0.1-2.6 0-5.3 0-7.9 0.1-78.2 1.4-151.5 22.8-215.1 59.3-8-14.2-15.2-28.9-21.6-44-21.5-50.8-32.9-104.5-33.9-160-0.1-2.7-0.1-5.4-0.1-8.2 0-2.6 0-5.2 0.1-7.8 1-55.6 12.4-109.5 33.9-160.3 6.4-15.2 13.7-30 21.8-44.3 63.5 36.5 136.8 57.9 214.9 59.2 2.6 0 5.3 0.1 7.9 0.1 2.7 0 5.4 0 8.1-0.1 78.1-1.4 151.4-22.8 214.9-59.3 8.1 14.3 15.4 29.1 21.8 44.4 21.5 50.9 32.9 104.8 33.9 160.3 0 2.6 0.1 5.2 0.1 7.8 0 2.7 0 5.4-0.1 8.2-1 55.4-12.4 109.2-33.9 160-6.4 15.2-13.6 29.9-21.7 44.1-63.5-36.6-136.8-58-215-59.4z" fill="#1200DE" /></svg>