<?xml version="1.0" encoding="utf-8"?>
<!-- Uploaded to: SVG Repo, www.svgrepo.com, Generator: SVG Repo Mixer Tools -->
<svg width="800px" height="800px" viewBox="0 0 1024 1024" class="icon"  version="1.1" xmlns="http://www.w3.org/2000/svg"><path d="M63.9 159v706h896.2V159H63.9z m852.2 662H107.9v-11.6l193.6-193.6 118.8 118.8 11.3 11.3 11.3-11.3 323-323 150.2 150.2V821z m0-281.9L765.9 388.9 431.6 723.3 301.5 593.1 107.9 786.7V203h808.2v336.1z" fill="#161412" /><path d="M306.7 446.9c-43.6 0-79.1-35.5-79.1-79.1s35.5-79.1 79.1-79.1c43.6 0 79.1 35.5 79.1 79.1s-35.5 79.1-79.1 79.1z m0-142.2c-34.8 0-63.1 28.3-63.1 63.1s28.3 63.1 63.1 63.1 63.1-28.3 63.1-63.1-28.3-63.1-63.1-63.1z" fill="#1200DE" /><path d="M306.3 252.3m-10 0a10 10 0 1 0 20 0 10 10 0 1 0-20 0Z" fill="#1200DE" /><path d="M248.6 267.9m-10 0a10 10 0 1 0 20 0 10 10 0 1 0-20 0Z" fill="#1200DE" /><path d="M206.4 310.4m-10 0a10 10 0 1 0 20 0 10 10 0 1 0-20 0Z" fill="#1200DE" /><path d="M191.1 368.2m-10 0a10 10 0 1 0 20 0 10 10 0 1 0-20 0Z" fill="#1200DE" /><path d="M206.8 425.9m-10 0a10 10 0 1 0 20 0 10 10 0 1 0-20 0Z" fill="#1200DE" /><path d="M249.2 468m-10 0a10 10 0 1 0 20 0 10 10 0 1 0-20 0Z" fill="#1200DE" /><path d="M307 483.3m-10 0a10 10 0 1 0 20 0 10 10 0 1 0-20 0Z" fill="#1200DE" /><path d="M364.8 467.7m-10 0a10 10 0 1 0 20 0 10 10 0 1 0-20 0Z" fill="#1200DE" /><path d="M406.9 425.2m-10 0a10 10 0 1 0 20 0 10 10 0 1 0-20 0Z" fill="#1200DE" /><path d="M422.2 367.4m-10 0a10 10 0 1 0 20 0 10 10 0 1 0-20 0Z" fill="#1200DE" /><path d="M406.5 309.7m-10 0a10 10 0 1 0 20 0 10 10 0 1 0-20 0Z" fill="#1200DE" /><path d="M364.1 267.6m-10 0a10 10 0 1 0 20 0 10 10 0 1 0-20 0Z" fill="#1200DE" /></svg>