<?xml version="1.0" encoding="utf-8"?>
<!-- Uploaded to: SVG Repo, www.svgrepo.com, Generator: SVG Repo Mixer Tools -->
<svg width="800px" height="800px" viewBox="0 0 1024 1024" class="icon"  version="1.1" xmlns="http://www.w3.org/2000/svg"><path d="M429.9 186.7v406.4h407.5c-4 34.1-12.8 67.3-26.2 99.1-18.4 43.6-44.8 82.7-78.5 116.3-33.6 33.6-72.8 60-116.4 78.4-45.1 19.1-93 28.7-142.5 28.7-49.4 0-97.4-9.7-142.5-28.7-43.6-18.4-82.7-44.8-116.4-78.4-33.6-33.6-60-72.7-78.4-116.3-19.1-45.1-28.7-93-28.7-142.4s9.7-97.3 28.7-142.4c18.4-43.6 44.8-82.7 78.4-116.3 33.6-33.6 72.8-60 116.4-78.4 31.7-13.2 64.7-21.9 98.6-26m44-46.6c-226.4 0-410 183.5-410 409.8s183.6 409.8 410 409.8 410-183.5 410-409.8v-0.8h-410v-409z" fill="#161412" /><path d="M566.1 80.5c43.7 1.7 86.4 10.6 127 26.4 44 17.1 84.2 41.8 119.6 73.5 71.7 64.1 117.4 151.7 128.7 246.7 1.2 9.9 2 20 2.4 30.2H566.1V80.5m-16-16.3v409h410c0-16.3-1-32.3-2.9-48.1C933.1 221.9 760 64.2 550.1 64.2zM264.7 770.4c-23.1-23.1-42.3-49.1-57.3-77.7l-14.7 6.5c35.7 68.2 94 122.7 165 153.5l4.3-15.6c-36.3-16-69.1-38.4-97.3-66.7z" fill="#1200DE" /></svg>