<?xml version="1.0" encoding="UTF-8"?>
<svg width="1200pt" height="1200pt" version="1.1" viewBox="0 0 1200 1200" xmlns="http://www.w3.org/2000/svg">
 <path d="m123.24 314.06h-15.422c-28.453 0-51.562-23.062-51.562-51.562v-150c0-28.5 23.109-51.562 51.562-51.562h862.5c28.453 0 51.562 23.062 51.562 51.562v150c0 28.5-23.109 51.562-51.562 51.562h-15.422v46.875h15.422c28.453 0 51.562 23.062 51.562 51.562v108.94c74.625 64.5 121.87 159.79 121.87 266.06 0 194.02-157.55 351.56-351.56 351.56-149.44 0-277.22-93.422-328.03-225h-356.34c-28.453 0-51.562-23.062-51.562-51.562v-150c0-28.5 23.109-51.562 51.562-51.562h15.422v-46.875h-15.422c-28.453 0-51.562-23.062-51.562-51.562v-150c0-28.5 23.109-51.562 51.562-51.562h15.422zm-15.422-28.125h862.5c12.938 0 23.438-10.5 23.438-23.438v-150c0-12.938-10.5-23.438-23.438-23.438h-862.5c-12.938 0-23.438 10.5-23.438 23.438v150c0 12.938 10.5 23.438 23.438 23.438zm818.95 75v-46.875h-775.4v46.875zm66.984 138.56v-87c0-12.938-10.5-23.438-23.438-23.438h-862.5c-12.938 0-23.438 10.5-23.438 23.438v150c0 12.938 10.5 23.438 23.438 23.438h396.37c22.875-32.625 51.188-61.172 83.531-84.375h-104.91c-7.7344 0-14.062-6.2812-14.062-14.062s6.3281-14.062 14.062-14.062h151.31c47.531-24 101.25-37.5 158.06-37.5 74.953 0 144.47 23.531 201.56 63.562zm-539.16 386.44c-9.0938-31.219-13.969-64.266-13.969-98.438s4.875-67.219 13.969-98.438h-346.78c-12.938 0-23.438 10.5-23.438 23.438v150c0 12.938 10.5 23.438 23.438 23.438zm9.5625-225c6.2812-16.219 13.734-31.922 22.266-46.875h-335.06v46.875zm-131.34-525c28.453 0 51.562 23.109 51.562 51.562s-23.109 51.562-51.562 51.562-51.562-23.109-51.562-51.562 23.109-51.562 51.562-51.562zm0 28.125c-12.938 0-23.438 10.5-23.438 23.438s10.5 23.438 23.438 23.438 23.438-10.5 23.438-23.438-10.5-23.438-23.438-23.438zm150 37.5c-7.7344 0-14.062-6.2812-14.062-14.062s6.3281-14.062 14.062-14.062h450c7.7812 0 14.062 6.2812 14.062 14.062s-6.2812 14.062-14.062 14.062zm-300-65.625c28.453 0 51.562 23.109 51.562 51.562s-23.109 51.562-51.562 51.562c-28.406 0-51.562-23.109-51.562-51.562s23.109-51.562 51.562-51.562zm0 28.125c-12.938 0-23.438 10.5-23.438 23.438s10.5 23.438 23.438 23.438 23.438-10.5 23.438-23.438-10.5-23.438-23.438-23.438zm0 571.87c28.453 0 51.562 23.109 51.562 51.562s-23.109 51.562-51.562 51.562c-28.406 0-51.562-23.109-51.562-51.562s23.109-51.562 51.562-51.562zm0 28.125c-12.938 0-23.438 10.5-23.438 23.438s10.5 23.438 23.438 23.438 23.438-10.5 23.438-23.438-10.5-23.438-23.438-23.438zm150-28.125c28.453 0 51.562 23.109 51.562 51.562s-23.109 51.562-51.562 51.562-51.562-23.109-51.562-51.562 23.109-51.562 51.562-51.562zm0 28.125c-12.938 0-23.438 10.5-23.438 23.438s10.5 23.438 23.438 23.438 23.438-10.5 23.438-23.438-10.5-23.438-23.438-23.438zm-150-328.13c28.453 0 51.562 23.109 51.562 51.562 0 28.453-23.109 51.562-51.562 51.562-28.406 0-51.562-23.109-51.562-51.562 0-28.453 23.109-51.562 51.562-51.562zm0 28.125c-12.938 0-23.438 10.5-23.438 23.438s10.5 23.438 23.438 23.438 23.438-10.5 23.438-23.438-10.5-23.438-23.438-23.438zm150-28.125c28.453 0 51.562 23.109 51.562 51.562 0 28.453-23.109 51.562-51.562 51.562s-51.562-23.109-51.562-51.562c0-28.453 23.109-51.562 51.562-51.562zm0 28.125c-12.938 0-23.438 10.5-23.438 23.438s10.5 23.438 23.438 23.438 23.438-10.5 23.438-23.438-10.5-23.438-23.438-23.438zm459.37 0c-178.5 0-323.44 144.94-323.44 323.44s144.94 323.44 323.44 323.44 323.44-144.94 323.44-323.44-144.94-323.44-323.44-323.44zm14.062 348.79c21.656 6.1406 37.5 26.062 37.5 49.641 0 28.453-23.109 51.562-51.562 51.562s-51.562-23.109-51.562-51.562c0-23.578 15.844-43.5 37.5-49.641v-137.86c0-7.7812 6.2812-14.062 14.062-14.062s14.062 6.2812 14.062 14.062zm-14.062 26.203c-12.938 0-23.438 10.5-23.438 23.438s10.5 23.438 23.438 23.438 23.438-10.5 23.438-23.438-10.5-23.438-23.438-23.438zm-84.375 150c-7.7344 0-14.062-6.2812-14.062-14.062s6.3281-14.062 14.062-14.062h168.74c7.7812 0 14.062 6.2812 14.062 14.062s-6.2812 14.062-14.062 14.062zm-111.19-6c-107.91-107.95-107.91-283.18 0-391.13 107.91-107.91 283.18-107.91 391.13 0 107.91 107.95 107.91 283.18 0 391.13-5.5312 5.4844-14.391 5.4844-19.922 0l-53.016-53.062c-5.4844-5.4844-5.4844-14.391 0-19.875 67.688-67.688 67.688-177.61 0-245.29-67.688-67.68-177.61-67.688-245.29 0-67.68 67.688-67.688 177.61 0 245.29 5.4844 5.4844 5.4844 14.391 0 19.875l-53.016 53.062c-5.4844 5.4844-14.391 5.4844-19.875 0zm10.219-360.98c-38.719 43.312-59.578 96.938-62.625 151.4h46.969c2.9531-42.469 19.219-84.141 48.891-118.22l-33.188-33.188zm171.28-82.547c-54.469 3.0469-108.14 23.953-151.4 62.672l33.188 33.234c34.031-29.672 75.75-45.984 118.22-48.938zm179.53 62.625c-43.266-38.719-96.938-59.578-151.4-62.625v46.969c42.469 2.9531 84.141 19.266 118.22 48.938l33.188-33.234zm82.547 171.28c-3.0469-54.469-23.953-108.09-62.625-151.4l-33.188 33.188c29.672 34.078 45.938 75.75 48.891 118.17h46.969zm-46.969 28.125c-2.9531 42.422-19.219 84.094-48.891 118.17l33.188 33.188c38.672-43.312 59.578-96.938 62.625-151.4h-46.969zm-449.06 0.046875c3.0938 54.422 24 108.05 62.672 151.31l33.188-33.188c-29.625-34.031-45.938-75.703-48.891-118.12z" fill-rule="evenodd"/>
</svg>
