<?xml version="1.0" encoding="UTF-8"?>
<svg width="1200pt" height="1200pt" version="1.1" viewBox="0 0 1200 1200" xmlns="http://www.w3.org/2000/svg">
 <path d="m263.11 1067.2c-0.14062 8.8594-7.2656 15.984-16.125 16.125-8.8594 0.09375-16.172-6.8906-16.5-15.75l-1.125-80.859v0.046875c-0.32812-4.6875 1.3594-9.2344 4.5938-12.609 3.2812-3.3281 7.7812-5.1094 12.469-4.9219l80.906-1.125c4.3594-0.14062 8.625 1.4531 11.812 4.5s5.0156 7.2188 5.0625 11.625-1.6875 8.625-4.7812 11.719-7.3125 4.8281-11.719 4.7812l-38.203 0.51562c88.875 68.766 198.05 106.03 310.4 106.08 112.36 0 221.53-37.219 310.4-105.94 7.1719-5.0156 17.016-3.5625 22.359 3.375 5.3438 6.8906 4.2656 16.781-2.3906 22.453-95.859 74.016-213.79 113.72-334.87 112.69-121.13-1.0312-238.36-42.75-332.95-118.41zm-128.72-797.68c-4.3594 0.51562-8.7656-0.75-12.188-3.5156-3.375-2.8125-5.5312-6.8438-5.9531-11.203-0.375-4.4062 0.98438-8.7656 3.8906-12.094 2.8594-3.3281 6.9375-5.3906 11.297-5.6719l80.484-7.5469 0.046875 0.046875c4.5938-0.75 9.2812 0.5625 12.891 3.5625 3.5625 2.9531 5.7188 7.3594 5.8594 12l7.5469 80.625c0.5625 8.8125-6 16.5-14.766 17.297-8.8125 0.79688-16.641-5.5781-17.672-14.344l-4.0312-43.078c-70.125 88.828-108.52 198.61-109.12 311.81-0.5625 113.2 36.703 223.36 105.94 312.89 5.0156 7.1719 3.5625 17.016-3.375 22.359-6.8906 5.3438-16.781 4.2656-22.453-2.3906-73.594-95.297-113.3-212.44-112.69-332.86 0.5625-120.42 41.344-237.19 115.88-331.78l-41.531 3.8906zm796.36-135.19c-0.75-9 5.9062-16.875 14.859-17.672 8.9531-0.75 16.875 5.8594 17.625 14.859l7.2188 80.391c0.70312 4.6406-0.60938 9.375-3.6094 12.984s-7.4062 5.7188-12.094 5.8594l-80.531 7.2188v-0.046875c-9 0.79688-16.875-5.8594-17.672-14.812-0.75-8.9531 5.8594-16.875 14.812-17.672l42.844-3.8438c-88.828-70.078-198.56-108.42-311.72-108.98-113.2-0.5625-223.31 36.703-312.84 105.94-7.125 4.6875-16.688 3.0938-21.891-3.6562-5.25-6.75-4.3594-16.406 1.9688-22.125 95.344-73.641 212.53-113.3 332.95-112.69 120.47 0.5625 237.28 41.438 331.87 116.02l-3.75-41.766zm134.63 795.47c8.8125-0.65625 16.547 5.8594 17.438 14.672 0.84375 8.8125-5.4375 16.688-14.25 17.766l-80.672 8.2031 0.046875 0.046875c-4.5469 0.65625-9.1406-0.60938-12.703-3.5156-3.5625-2.8594-5.7188-7.125-6-11.719l-8.25-80.766h0.046875c-0.65625-8.8125 5.8594-16.547 14.672-17.391 8.8125-0.89062 16.688 5.4375 17.766 14.203l4.4062 43.406h0.046875c70.266-88.828 108.75-198.66 109.41-311.9 0.60938-113.3-36.656-223.5-105.94-313.13-5.0156-7.1719-3.5625-17.016 3.375-22.359 6.8906-5.3438 16.781-4.2656 22.453 2.3906 73.547 95.25 113.25 212.29 112.69 332.63-0.51562 120.32-41.203 237.05-115.59 331.64zm-128.16-466.6 51.609-32.719h-0.046875c-17.484-39.984-41.016-77.016-69.703-109.88l-51.609 32.719v-0.046876c-6.4219 4.125-14.812 3.1875-20.25-2.2031-28.078-27.938-60.75-50.906-96.562-67.875-6.8906-3.2812-10.594-10.828-8.9531-18.281l13.359-59.719c-40.688-15.938-83.531-25.547-127.08-28.453l-13.266 59.297c-1.5469 7.5469-8.1562 13.031-15.938 13.078-39.609 0.1875-78.891 7.0781-116.2 20.391-7.2656 2.5781-15.281-0.23438-19.359-6.75l-32.719-51.609v0.046876c-39.984 17.484-77.016 41.016-109.88 69.703l32.719 51.609h-0.046875c4.125 6.4219 3.1875 14.812-2.2031 20.25-27.938 28.078-50.906 60.75-67.875 96.562-3.2812 6.8906-10.828 10.594-18.281 8.9531l-59.719-13.359c-15.938 40.688-25.547 83.531-28.453 127.08l59.297 13.266c7.5938 1.5469 13.031 8.25 13.031 15.984 0.1875 39.609 7.0781 78.938 20.391 116.25 2.5312 7.1719-0.23438 15.188-6.7031 19.266l-51.609 32.719h0.046875c17.484 39.984 41.016 77.016 69.703 109.88l51.609-32.719v0.046874c6.4219-4.125 14.812-3.1875 20.25 2.2031 28.078 27.938 60.75 50.906 96.562 67.875 6.8906 3.2812 10.594 10.828 8.9531 18.281l-13.359 59.719c40.688 15.938 83.531 25.547 127.08 28.453l13.266-59.297c1.5469-7.5938 8.25-13.031 15.984-13.031 39.609-0.1875 78.938-7.0781 116.25-20.391 7.1719-2.5312 15.188 0.23438 19.266 6.7031l32.719 51.609v-0.046874c39.984-17.484 77.016-41.016 109.88-69.703l-32.719-51.609h0.046875c-4.125-6.4219-3.1875-14.812 2.2031-20.25 27.938-28.078 50.906-60.75 67.875-96.562 3.2812-6.8906 10.828-10.594 18.281-8.9531l59.719 13.359c15.938-40.688 25.547-83.531 28.453-127.08l-59.297-13.266c-7.5469-1.5469-13.031-8.1562-13.078-15.938-0.1875-39.609-7.0781-78.891-20.391-116.2-2.5781-7.2656 0.23438-15.281 6.75-19.359zm86.719-33.281c-20.906-52.078-51.234-99.891-89.438-141-5.25-6.2812-14.344-7.7344-21.281-3.3281l-52.453 33.234c-25.312-23.578-53.719-43.547-84.422-59.391l13.359-59.625h-0.046875c2.25-7.9219-1.7344-16.266-9.2812-19.5-52.219-22.266-108.05-34.781-164.76-36.797-7.875-0.28125-14.812 5.0625-16.5 12.75l-13.5 60.516c-34.547 1.2188-68.766 7.1719-101.72 17.672l-33.188-52.312c-4.2188-6.6562-12.562-9.3281-19.828-6.4219-52.453 20.906-100.55 51.375-141.89 89.812-6.3281 5.25-7.7344 14.391-3.3281 21.281l33.234 52.406h-0.046875c-23.531 25.312-43.5 53.719-59.391 84.422l-59.625-13.359c-7.875-2.25-16.266 1.7812-19.453 9.3281-22.312 52.219-34.828 108.05-36.844 164.76-0.28125 7.875 5.0625 14.812 12.75 16.5l60.516 13.5c1.2188 34.547 7.1719 68.766 17.672 101.72l-52.312 33.188c-6.6562 4.2188-9.3281 12.562-6.4219 19.828 20.906 52.453 51.375 100.55 89.812 141.89 5.25 6.3281 14.391 7.7344 21.281 3.3281l52.406-33.234v0.046875c25.312 23.531 53.719 43.5 84.422 59.391l-13.359 59.625c-2.25 7.875 1.7812 16.266 9.3281 19.453 52.219 22.312 108.05 34.828 164.76 36.844 7.875 0.28125 14.812-5.0625 16.5-12.75l13.5-60.516c34.547-1.2188 68.766-7.1719 101.72-17.672l33.188 52.359v-0.046875c4.2188 6.6562 12.562 9.3281 19.875 6.4219 52.406-20.906 100.55-51.375 141.89-89.812 6.2812-5.25 7.6875-14.344 3.3281-21.234l-33.234-52.453c23.578-25.312 43.547-53.719 59.391-84.422l59.625 13.359v-0.046875c7.9219 2.25 16.266-1.7344 19.5-9.2812 22.266-52.219 34.781-108.05 36.797-164.76 0.28125-7.875-5.0625-14.812-12.75-16.5l-60.516-13.5c-1.2188-34.547-7.1719-68.766-17.672-101.72l52.359-33.188h-0.046875c6.9844-4.4531 9.5625-13.359 6-20.812zm-240.66 69.797c4.6875 8.5312 8.7656 17.344 12.234 26.484 25.219 66.609 14.766 141.47-27.703 198.66s-111.14 88.828-182.26 83.906c-71.062-4.9219-134.72-45.656-168.94-108.14-34.219-62.531-34.219-138.14-0.09375-200.63 7.5 101.16 40.594 180.61 175.82 250.78 4.7344 2.4375 10.312 2.4375 15 0 134.76-69.984 168.19-149.81 175.92-251.06zm-368.53-108.14c0.09375-10.547 0.1875-21.422 0.1875-42.797h0.09375c-0.046876-0.98437 0.046874-1.9219 0.23437-2.9062 0.75-4.2188 3.1875-8.0156 6.75-10.5 3.5156-2.4844 7.9219-3.4219 12.188-2.6719 6.5156 1.2188 12.984 2.1094 19.266 2.7188 5.6719 0.5625 11.344 0.84375 16.922 0.84375h0.046876c21.234 0.23437 42.469-2.0625 63.188-6.8906 19.359-4.4531 37.688-12.375 54.234-23.391 3.5156-2.4375 7.6875-3.75 12-3.75 3.6094 0 7.1719 0.9375 10.312 2.7188 0.60938 0.32812 1.1719 0.65625 1.6875 1.0312 16.5 11.016 34.875 18.938 54.188 23.391 20.719 4.8281 41.953 7.125 63.234 6.8906 5.625 0 11.344-0.28125 17.109-0.84375 5.9062-0.60938 12-1.4062 18.094-2.4844h-0.046874c4.9219-1.3594 10.219-0.32812 14.25 2.7656s6.4219 7.9219 6.4219 13.031c0 21.422 0.09375 31.219 0.14063 40.781 0.1875 19.219 0.32812 37.734 0.14062 55.641 39.516 47.25 59.484 107.81 55.828 169.31-3.6562 61.5-30.656 119.25-75.516 161.53-44.812 42.234-104.11 65.766-165.71 65.766-61.598 0-120.89-23.531-165.71-65.766-44.859-42.281-71.859-100.03-75.516-161.53s16.312-122.06 55.828-169.31c-0.14062-17.25 0-35.062 0.1875-53.578zm32.812-24 2.7188 0.28125c7.3594 0.75 14.109 1.125 20.156 1.125 23.859 0.23437 47.625-2.3906 70.875-7.7812 20.672-4.875 40.406-12.984 58.547-24 18.141 11.016 37.875 19.125 58.547 24 23.25 5.4375 47.016 8.0625 70.875 7.875 6 0 12.844-0.375 20.297-1.125l2.9062-0.32813 0.1875 22.172c0.1875 21 0.32813 41.109 0 60.375v1.3125c-2.0625 111.05-21.281 195.28-152.86 266.29-132-71.25-150.71-154.97-152.53-266.16v-1.5469c-0.28125-18.656-0.09375-38.062 0.09375-58.266l0.23438-24.234zm56.156 195.61c-3.6094-2.4844-6.0469-6.3281-6.7969-10.641s0.23438-8.7656 2.8125-12.328c2.5312-3.5625 6.4219-5.9531 10.734-6.6562 4.3594-0.65625 8.7656 0.42188 12.281 3.0469l49.734 35.672 101.77-122.29c5.7656-6.9375 16.031-7.875 22.922-2.1094 6.9375 5.7656 7.875 16.031 2.1094 22.969l-110.58 132.94-0.14062 0.1875c-5.25 7.3125-15.469 9-22.781 3.75z" fill-rule="evenodd"/>
</svg>
