<?xml version="1.0" encoding="UTF-8"?>
<svg width="1200pt" height="1200pt" version="1.1" viewBox="0 0 1200 1200" xmlns="http://www.w3.org/2000/svg">
 <path d="m975.74 981.66h-751.5c-40.875 0-74.25-33.281-74.25-74.25v-44.484c0-7.7812 6.2812-14.062 14.062-14.062h75c7.7812 0 14.062 6.2812 14.062 14.062s-6.2812 14.062-14.062 14.062l-60.938 0.046875v30.422c0 25.406 20.672 46.125 46.125 46.125h751.6c25.406 0 46.125-20.672 46.125-46.125v-30.422h-60.938c-7.7812 0-14.062-6.2812-14.062-14.062s6.2812-14.062 14.062-14.062h75c7.7812 0 14.062 6.2812 14.062 14.062v44.484c-0.09375 40.922-33.375 74.203-74.344 74.203z"/>
 <path d="m913.64 807.28h-627.28c-17.438 0-31.688-14.25-31.688-31.688l-0.046876-348.28c0-17.438 14.25-31.688 31.688-31.688h83.203c7.7812 0 14.062 6.2812 14.062 14.062s-6.2812 14.062-14.062 14.062h-83.203c-1.9688 0-3.5625 1.6406-3.5625 3.5625v348.32c0 1.9688 1.6406 3.5625 3.5625 3.5625h627.28c1.9688 0 3.5625-1.6406 3.5625-3.5625l0.09375-348.32c0-1.9688-1.6406-3.5625-3.5625-3.5625h-136.22c-7.7812 0-14.062-6.2812-14.062-14.062s6.2812-14.062 14.062-14.062h136.22c17.438 0 31.688 14.25 31.688 31.688v348.32c0 17.484-14.203 31.641-31.734 31.641z"/>
 <path d="m701.72 914.9h-203.44c-6.6562 0-12.469-4.7344-13.781-11.297l-5.25-26.484-240.19-0.046875c-29.906 0-54.141-24.328-54.141-54.141v-442.97c0-29.906 24.328-54.141 54.141-54.141h153.56c7.7812 0 14.062 6.2812 14.062 14.062s-6.2812 14.062-14.062 14.062h-153.56c-14.344 0-26.016 11.672-26.016 26.016v442.92c0 14.344 11.672 26.016 26.016 26.016h251.68c6.6562 0 12.469 4.7344 13.781 11.297l5.25 26.484h180.42l5.25-26.484c1.3125-6.5625 7.0781-11.297 13.781-11.297h251.72c14.344 0 26.016-11.672 26.016-26.016v-442.92c0-14.344-11.672-26.016-26.016-26.016h-206.63c-7.7812 0-14.062-6.2812-14.062-14.062s6.2812-14.062 14.062-14.062h206.63c29.906 0 54.141 24.328 54.141 54.141v442.92c0 29.906-24.328 54.141-54.141 54.141h-240.19l-5.25 26.484c-1.3125 6.6094-7.125 11.391-13.781 11.391z"/>
 <path d="m573.47 659.16c-28.594 0-56.438-5.4375-82.781-16.172-27.281-11.062-51.797-27.375-72.75-48.469-20.953-21.047-37.266-45.562-48.328-72.938-10.688-26.438-16.125-54.328-16.125-82.922s5.3906-56.531 16.125-82.922c11.062-27.375 27.281-51.938 48.328-72.938 20.953-21.047 45.469-37.312 72.75-48.469 26.344-10.734 54.188-16.172 82.781-16.172s56.438 5.4375 82.781 16.172c27.281 11.062 51.797 27.375 72.75 48.469 20.953 21.047 37.266 45.562 48.328 72.938 10.688 26.438 16.125 54.328 16.125 82.922s-5.3906 56.531-16.125 82.922c-11.062 27.375-27.281 51.938-48.328 72.938-20.953 21.047-45.469 37.312-72.75 48.469-26.297 10.734-54.188 16.172-82.781 16.172zm0-412.69c-51.281 0-99.422 19.969-135.71 56.297-74.812 75-74.812 196.97 0 271.97 36.281 36.328 84.422 56.297 135.71 56.297 51.281 0 99.422-19.969 135.71-56.297 74.812-75 74.812-196.97 0-271.97-36.234-36.328-84.422-56.297-135.71-56.297z"/>
 <path d="m573.47 589.13c-40.078 0-77.812-15.656-106.12-44.062-28.359-28.406-43.969-66.141-43.969-106.31 0-40.125 15.562-77.906 43.969-106.31 28.359-28.406 66.047-44.062 106.12-44.062s77.812 15.656 106.12 44.062c28.359 28.406 43.969 66.141 43.969 106.31 0 40.125-15.562 77.906-43.969 106.31-28.312 28.406-66 44.062-106.12 44.062zm0-272.58c-32.578 0-63.234 12.703-86.25 35.812-47.578 47.625-47.578 125.21 0 172.92 23.016 23.062 53.672 35.812 86.25 35.812s63.234-12.703 86.25-35.812c47.578-47.625 47.578-125.21 0-172.92-23.062-23.109-53.672-35.812-86.25-35.812z"/>
 <path d="m852.42 807.28c-3.6562 0-7.2188-1.3594-9.9375-4.125l-129.47-129.79c-5.4375-5.5312-5.5312-14.344 0-19.875l74.906-75.047c2.625-2.625 6.1875-4.125 9.9375-4.125s7.3125 1.4531 9.9375 4.125l32.766 32.812 100.73 100.97c5.5312 5.5312 5.4375 14.438 0 19.875-5.5312 5.5312-14.438 5.4375-19.875 0l-123.56-123.79-55.031 55.125 119.58 119.81c5.5312 5.5312 5.4375 14.438 0 19.875-2.7656 2.8594-6.4219 4.1719-9.9844 4.1719z"/>
 <path d="m741.61 658.82c-3.6562 0-7.2188-1.3594-9.9375-4.125l-42.422-42.469c-5.5312-5.5312-5.4375-14.438 0-19.875 5.5312-5.5312 14.438-5.4375 19.875 0l42.422 42.469c5.5312 5.5312 5.4375 14.438 0 19.875-2.7188 2.7188-6.2812 4.125-9.9375 4.125z"/>
 <path d="m781.36 618.98c-3.6562 0-7.2188-1.3594-9.9375-4.125l-42.703-42.844c-5.5312-5.5312-5.4375-14.438 0-19.875s14.438-5.4375 19.875 0l42.703 42.844c5.5312 5.5312 5.4375 14.438 0 19.875-2.7656 2.7656-6.375 4.125-9.9375 4.125z"/>
 <path d="m755.68 710.39c-3.5625 0-7.2188-1.3594-9.9375-4.125-5.5312-5.5312-5.5312-14.438 0-19.875l74.906-75.047c5.5312-5.5312 14.438-5.5312 19.875 0 5.5312 5.5312 5.5312 14.438 0 19.875l-74.906 75.047c-2.7188 2.7656-6.3281 4.125-9.9375 4.125z"/>
 <path d="m546.19 500.53c-3.5625 0-7.2188-1.3594-9.9375-4.125l-40.875-40.875c-5.5312-5.5312-5.5312-14.438 0-19.875 5.5312-5.5312 14.438-5.5312 19.875 0l30.938 30.938 85.5-85.5c5.5312-5.5312 14.438-5.5312 19.875 0 5.5312 5.5312 5.5312 14.438 0 19.875l-95.391 95.438c-2.7656 2.7656-6.3281 4.125-9.9844 4.125z"/>
</svg>
