<?xml version="1.0" encoding="utf-8"?>
<!-- Uploaded to: SVG Repo, www.svgrepo.com, Generator: SVG Repo Mixer Tools -->
<svg width="800px" height="800px" viewBox="0 0 1024 1024" class="icon"  version="1.1" xmlns="http://www.w3.org/2000/svg"><path d="M601.5 531.8h278.8v16H601.5zM639.3 657.4h224v16h-224zM686.8 779h160.8v16H686.8z" fill="#1200DE" /><path d="M216.3 927.8H62.2V425.6h155.4l-1.3 502.2z m-110.1-44h66.2l1.1-414.2h-67.3v414.2zM822.1 927.8H268.9l-0.4-502L633.3 96.2l85.2 91.5-66.8 196.7h310L822.1 927.8z m-509.3-44H788l117-455.4H655.8l-65.5-0.1 78.1-229.9-37.8-40.5-318.1 287.4 0.3 438.5z" fill="#161412" /></svg>