<?xml version="1.0" encoding="UTF-8"?>
<svg width="1200pt" height="1200pt" version="1.1" viewBox="0 0 1200 1200" xmlns="http://www.w3.org/2000/svg">
 <path d="m514.56 862.49h216.69c51.691 0 93.75-42.059 93.75-93.75v-168.75h-37.5v168.75c0 31.02-25.23 56.25-56.25 56.25h-243.75c-72.852 0.023437-280.61-0.019532-356.25 0-31.02 0-56.25-25.23-56.25-56.25v-412.5c0-31.02 25.23-56.25 56.25-56.25h600c31.02 0 56.25 25.23 56.25 56.25v56.25h21.938c-7.3984-20.602-1.6797-45.723 15.176-60.07-2.0547-49.887-42.98-89.93-93.363-89.93h-600c-51.691 0-93.75 42.059-93.75 93.75v412.5c0 51.691 42.059 93.75 93.75 93.75h216.69c0.003906 0.007812-37.258 99.324-37.242 99.336-9.5508 23.516 9.7148 51.383 35.113 50.664h170.89c25.387 0.71094 44.684-27.148 35.109-50.684 0 0-37.242-99.316-37.242-99.316z"/>
 <path d="m857.81 803.05c-15 55.875-66 96.938-126.56 96.938h-85.5c-0.28125 20.09 17.371 37.922 37.5 37.5h171c25.297 0.76562 44.59-27.23 35.062-50.625 0 0-31.5-83.812-31.5-83.812z"/>
 <path d="m543.75 468.74c0 10.355 8.3945 18.75 18.75 18.75h375c16.176 0.53125 25.121-20.93 13.258-32.008l-75-75c-17.402-17.258-43.781 9.1016-26.512 26.512l42.992 42.992h-329.74c-10.355 0-18.75 8.3945-18.75 18.75z"/>
 <path d="m1068.8 187.49h-600c-30.504 0-57.391 14.871-74.52 37.5h337.02c66.039 0 120.69 49.078 129.77 112.64 15.449-0.76953 30.32 5.4805 41.246 16.336l75 75c21.094 20.41 21.977 56.008 1.9297 77.367 32.711 34.281 6.0469 94.699-41.699 93.652h-75c-0.47266 8.4375 1.3438 186.27-1.5 187.5h207.75c51.691 0 93.75-42.059 93.75-93.75v-412.5c0-51.691-42.059-93.75-93.75-93.75z"/>
 <path d="m956.25 543.74c0-10.363-8.3945-18.75-18.75-18.75h-375c-16.172-0.53516-25.117 20.93-13.254 32.008l75 75c17.402 17.258 43.785-9.1016 26.512-26.516l-42.992-42.992h329.74c10.355 0 18.75-8.3867 18.75-18.75z"/>
</svg>
